<svg width="25" height="24" viewBox="0 0 25 24" fill="none" xmlns="http://www.w3.org/2000/svg">
<g clip-path="url(#clip0_1750_1248)">
<path d="M22.0884 10.2862H3.71126C3.4661 10.2841 3.22334 10.3346 2.99936 10.4344C2.77539 10.5341 2.57541 10.6807 2.41293 10.8643C2.25045 11.0479 2.12924 11.2643 2.05748 11.4987C1.98573 11.7331 1.9651 11.9802 1.99698 12.2233L3.24841 21.6519C3.30281 22.0669 3.50717 22.4477 3.82295 22.7224C4.13874 22.9972 4.54414 23.1469 4.96269 23.1433H20.8027C21.2212 23.1469 21.6266 22.9972 21.9424 22.7224C22.2582 22.4477 22.4626 22.0669 22.517 21.6519L23.7684 12.2233C23.7999 11.9831 23.7802 11.7389 23.7104 11.5069C23.6407 11.2749 23.5225 11.0602 23.3638 10.8772C23.205 10.6941 23.0093 10.5468 22.7894 10.445C22.5696 10.3431 22.3307 10.289 22.0884 10.2862Z" stroke="#666666" stroke-linecap="round" stroke-linejoin="round"/>
<path d="M8.61401 14.5713V18.857" stroke="#666666" stroke-linecap="round" stroke-linejoin="round"/>
<path d="M12.8999 14.5713V18.857" stroke="#666666" stroke-linecap="round" stroke-linejoin="round"/>
<path d="M17.1855 14.5713V18.857" stroke="#666666" stroke-linecap="round" stroke-linejoin="round"/>
<path d="M17.1514 2.64062C18.1783 2.81803 19.1191 3.32598 19.8308 4.0872C20.5426 4.84843 20.9862 5.82127 21.0942 6.85777L21.4714 10.2863" stroke="#666666" stroke-linecap="round" stroke-linejoin="round"/>
<path d="M4.32837 10.2862L4.70551 6.85766C4.82058 5.82731 5.26732 4.86225 5.97846 4.10783C6.68959 3.35341 7.62661 2.85048 8.64837 2.6748" stroke="#666666" stroke-linecap="round" stroke-linejoin="round"/>
<path d="M17.1854 3.00028C17.1854 3.28168 17.13 3.56033 17.0223 3.82031C16.9146 4.0803 16.7568 4.31652 16.5578 4.51551C16.3588 4.71449 16.1226 4.87233 15.8626 4.98002C15.6026 5.08771 15.324 5.14314 15.0426 5.14314H10.7569C10.1885 5.14314 9.64351 4.91737 9.24164 4.51551C8.83978 4.11364 8.61401 3.5686 8.61401 3.00028C8.61401 2.43196 8.83978 1.88691 9.24164 1.48505C9.64351 1.08319 10.1885 0.857422 10.7569 0.857422H15.0426C15.6109 0.857422 16.1559 1.08319 16.5578 1.48505C16.9597 1.88691 17.1854 2.43196 17.1854 3.00028V3.00028Z" stroke="#666666" stroke-linecap="round" stroke-linejoin="round"/>
</g>
<defs>
<clipPath id="clip0_1750_1248">
<rect width="24" height="24" fill="white" transform="translate(0.899902)"/>
</clipPath>
</defs>
</svg>
