<svg width="41" height="17" viewBox="0 0 41 17" fill="none" xmlns="http://www.w3.org/2000/svg">
<g clip-path="url(#clip0_308_88374)">
<path d="M7.56573 2.46319C7.09698 3.00363 6.34698 3.42989 5.59698 3.36899C5.50323 2.63826 5.87042 1.86186 6.30011 1.38231C6.76886 0.826651 7.58917 0.430838 8.25323 0.400391C8.33136 1.16157 8.02667 1.90753 7.56573 2.46319ZM8.24542 3.51362C7.15948 3.45272 6.22979 4.11495 5.71417 4.11495C5.19073 4.11495 4.40167 3.54406 3.54229 3.55929C2.42511 3.57451 1.38604 4.19107 0.81573 5.17299C-0.356145 7.13683 0.511043 10.0445 1.64386 11.643C2.19854 12.4346 2.86261 13.3024 3.73761 13.2719C4.56573 13.2415 4.89386 12.7467 5.89386 12.7467C6.90167 12.7467 7.19073 13.2719 8.06573 13.2567C8.97198 13.2415 9.54229 12.4651 10.097 11.6735C10.7298 10.7753 10.9876 9.89991 11.0032 9.85424C10.9876 9.83902 9.25323 9.19202 9.23761 7.2434C9.22198 5.61447 10.6048 4.83807 10.6673 4.7924C9.88604 3.66585 8.66729 3.54406 8.24542 3.51362ZM14.5189 1.30619V13.173H16.4095V9.1159H19.0267C21.4173 9.1159 23.097 7.51742 23.097 5.20344C23.097 2.88945 21.4485 1.30619 19.0892 1.30619H14.5189ZM16.4095 2.859H18.5892C20.2298 2.859 21.1673 3.71152 21.1673 5.21105C21.1673 6.71057 20.2298 7.5707 18.5814 7.5707H16.4095V2.859ZM26.5501 13.2643C27.7376 13.2643 28.8392 12.6782 29.3392 11.7496H29.3782V13.173H31.1282V7.26623C31.1282 5.55358 29.722 4.44987 27.5579 4.44987C25.5501 4.44987 24.0657 5.5688 24.011 7.10638H25.7142C25.8548 6.37565 26.5501 5.89611 27.5032 5.89611C28.6595 5.89611 29.3079 6.42132 29.3079 7.38802V8.04264L26.9485 8.17965C24.7532 8.30905 23.5657 9.18441 23.5657 10.7068C23.5657 12.2443 24.7923 13.2643 26.5501 13.2643ZM27.0579 11.8561C26.0501 11.8561 25.4095 11.3842 25.4095 10.6611C25.4095 9.91514 26.0267 9.48127 27.2064 9.41276L29.3079 9.28336V9.9532C29.3079 11.0645 28.3392 11.8561 27.0579 11.8561ZM33.4642 16.4004C35.3079 16.4004 36.1751 15.7153 36.9329 13.6373L40.2532 4.56404H38.3314L36.1048 11.5745H36.0657L33.8392 4.56404H31.8626L35.0657 13.2034L34.8939 13.7287C34.6048 14.6192 34.136 14.9618 33.3001 14.9618C33.1517 14.9618 32.8626 14.9465 32.7454 14.9313V16.3547C32.8548 16.3852 33.3236 16.4004 33.4642 16.4004Z" fill="#F6F6F6"/>
</g>
<defs>
<clipPath id="clip0_308_88374">
<rect width="40" height="16" fill="white" transform="translate(0.25 0.400391)"/>
</clipPath>
</defs>
</svg>
